<mxfile host="app.diagrams.net" modified="2022-12-03T12:00:51.584Z" agent="5.0 (Windows NT 10.0; Win64; x64) AppleWebKit/537.36 (KHTML, like Gecko) Chrome/107.0.0.0 Safari/537.36" etag="MTpG3vZy8z4R5Azs5Ljs" version="20.5.3" type="github">
  <diagram id="7_3nWAONBvqbhg6zF68n" name="第 1 页">
    <mxGraphModel dx="593" dy="356" grid="1" gridSize="10" guides="1" tooltips="1" connect="1" arrows="1" fold="1" page="1" pageScale="1" pageWidth="827" pageHeight="1169" math="0" shadow="0">
      <root>
        <mxCell id="0" />
        <mxCell id="1" parent="0" />
        <mxCell id="4xKS2BO0SPP-DSH_cFb6-1" value="" style="ellipse;whiteSpace=wrap;html=1;aspect=fixed;" parent="1" vertex="1">
          <mxGeometry x="310" y="1199" width="200" height="200" as="geometry" />
        </mxCell>
        <mxCell id="4xKS2BO0SPP-DSH_cFb6-40" style="edgeStyle=none;rounded=0;orthogonalLoop=1;jettySize=auto;html=1;exitX=0.5;exitY=0;exitDx=0;exitDy=0;fontSize=15;startArrow=blockThin;startFill=1;endArrow=none;endFill=0;" parent="1" target="4xKS2BO0SPP-DSH_cFb6-39" edge="1">
          <mxGeometry relative="1" as="geometry">
            <mxPoint x="355" y="1250" as="sourcePoint" />
          </mxGeometry>
        </mxCell>
        <mxCell id="4xKS2BO0SPP-DSH_cFb6-13" style="edgeStyle=none;rounded=0;orthogonalLoop=1;jettySize=auto;html=1;exitX=0.729;exitY=0.881;exitDx=0;exitDy=0;entryX=0.265;entryY=0.119;entryDx=0;entryDy=0;entryPerimeter=0;startArrow=none;startFill=0;endArrow=none;endFill=0;exitPerimeter=0;" parent="1" edge="1">
          <mxGeometry relative="1" as="geometry">
            <mxPoint x="411.28999999999996" y="1278.8100000000002" as="sourcePoint" />
            <mxPoint x="442.6500000000001" y="1351.19" as="targetPoint" />
          </mxGeometry>
        </mxCell>
        <mxCell id="4xKS2BO0SPP-DSH_cFb6-12" style="edgeStyle=none;rounded=0;orthogonalLoop=1;jettySize=auto;html=1;exitX=1;exitY=0;exitDx=0;exitDy=0;entryX=0;entryY=1;entryDx=0;entryDy=0;startArrow=none;startFill=0;endArrow=none;endFill=0;" parent="1" edge="1">
          <mxGeometry relative="1" as="geometry">
            <mxPoint x="378.5355339059329" y="1311.4644660940676" as="sourcePoint" />
            <mxPoint x="405.46446609406735" y="1278.5355339059329" as="targetPoint" />
          </mxGeometry>
        </mxCell>
        <mxCell id="4xKS2BO0SPP-DSH_cFb6-14" style="edgeStyle=none;rounded=0;orthogonalLoop=1;jettySize=auto;html=1;exitX=0.374;exitY=0.932;exitDx=0;exitDy=0;entryX=0.639;entryY=0.042;entryDx=0;entryDy=0;entryPerimeter=0;startArrow=none;startFill=0;endArrow=none;endFill=0;exitPerimeter=0;" parent="1" edge="1">
          <mxGeometry relative="1" as="geometry">
            <mxPoint x="473.74" y="1309.3200000000002" as="sourcePoint" />
            <mxPoint x="446.3900000000001" y="1350.42" as="targetPoint" />
          </mxGeometry>
        </mxCell>
        <mxCell id="4xKS2BO0SPP-DSH_cFb6-11" value="" style="endArrow=none;html=1;rounded=0;startArrow=none;startFill=0;exitX=0.232;exitY=-0.023;exitDx=0;exitDy=0;entryX=0.645;entryY=1.023;entryDx=0;entryDy=0;entryPerimeter=0;exitPerimeter=0;" parent="1" edge="1">
          <mxGeometry width="50" height="50" relative="1" as="geometry">
            <mxPoint x="372.31999999999994" y="1309.77" as="sourcePoint" />
            <mxPoint x="356.45000000000005" y="1260.2300000000002" as="targetPoint" />
          </mxGeometry>
        </mxCell>
        <mxCell id="4xKS2BO0SPP-DSH_cFb6-18" style="edgeStyle=none;rounded=0;orthogonalLoop=1;jettySize=auto;html=1;exitX=1;exitY=0.5;exitDx=0;exitDy=0;entryX=0;entryY=1;entryDx=0;entryDy=0;startArrow=none;startFill=0;endArrow=none;endFill=0;" parent="1" target="4xKS2BO0SPP-DSH_cFb6-55" edge="1">
          <mxGeometry relative="1" as="geometry">
            <mxPoint x="240" y="1292.5" as="sourcePoint" />
          </mxGeometry>
        </mxCell>
        <mxCell id="4xKS2BO0SPP-DSH_cFb6-17" style="edgeStyle=none;rounded=0;orthogonalLoop=1;jettySize=auto;html=1;exitX=0;exitY=0.5;exitDx=0;exitDy=0;entryX=1;entryY=0;entryDx=0;entryDy=0;startArrow=none;startFill=0;endArrow=none;endFill=0;" parent="1" source="4xKS2BO0SPP-DSH_cFb6-16" target="4xKS2BO0SPP-DSH_cFb6-50" edge="1">
          <mxGeometry relative="1" as="geometry" />
        </mxCell>
        <mxCell id="4xKS2BO0SPP-DSH_cFb6-16" value="" style="rounded=0;whiteSpace=wrap;html=1;" parent="1" vertex="1">
          <mxGeometry x="570.36" y="1262.5" width="40" height="60" as="geometry" />
        </mxCell>
        <mxCell id="4xKS2BO0SPP-DSH_cFb6-20" style="edgeStyle=none;rounded=0;orthogonalLoop=1;jettySize=auto;html=1;exitX=-0.018;exitY=0.44;exitDx=0;exitDy=0;startArrow=none;startFill=0;endArrow=none;endFill=0;entryX=0.973;entryY=0.44;entryDx=0;entryDy=0;entryPerimeter=0;exitPerimeter=0;" parent="1" source="4xKS2BO0SPP-DSH_cFb6-16" target="4xKS2BO0SPP-DSH_cFb6-16" edge="1">
          <mxGeometry relative="1" as="geometry">
            <mxPoint x="610.36" y="1282.5" as="targetPoint" />
          </mxGeometry>
        </mxCell>
        <mxCell id="4xKS2BO0SPP-DSH_cFb6-21" value="主机" style="text;html=1;strokeColor=none;fillColor=none;align=center;verticalAlign=middle;whiteSpace=wrap;rounded=0;" parent="1" vertex="1">
          <mxGeometry x="560" y="1290" width="60" height="30" as="geometry" />
        </mxCell>
        <mxCell id="4xKS2BO0SPP-DSH_cFb6-23" style="edgeStyle=none;rounded=0;orthogonalLoop=1;jettySize=auto;html=1;exitX=1;exitY=0;exitDx=0;exitDy=0;startArrow=classic;startFill=1;endArrow=none;endFill=0;" parent="1" source="4xKS2BO0SPP-DSH_cFb6-22" edge="1">
          <mxGeometry relative="1" as="geometry">
            <mxPoint x="640" y="1250" as="targetPoint" />
          </mxGeometry>
        </mxCell>
        <mxCell id="4xKS2BO0SPP-DSH_cFb6-22" value="" style="ellipse;whiteSpace=wrap;html=1;" parent="1" vertex="1">
          <mxGeometry x="580.36" y="1267.5" width="20" height="20" as="geometry" />
        </mxCell>
        <mxCell id="4xKS2BO0SPP-DSH_cFb6-24" value="应用进程" style="text;html=1;align=center;verticalAlign=middle;resizable=0;points=[];autosize=1;strokeColor=none;fillColor=none;" parent="1" vertex="1">
          <mxGeometry x="630" y="1230" width="70" height="30" as="geometry" />
        </mxCell>
        <mxCell id="4xKS2BO0SPP-DSH_cFb6-25" value="" style="rounded=0;whiteSpace=wrap;html=1;" parent="1" vertex="1">
          <mxGeometry x="200.72000000000003" y="1267.5" width="40" height="60" as="geometry" />
        </mxCell>
        <mxCell id="4xKS2BO0SPP-DSH_cFb6-26" style="edgeStyle=none;rounded=0;orthogonalLoop=1;jettySize=auto;html=1;exitX=-0.018;exitY=0.44;exitDx=0;exitDy=0;startArrow=none;startFill=0;endArrow=none;endFill=0;entryX=0.973;entryY=0.44;entryDx=0;entryDy=0;entryPerimeter=0;exitPerimeter=0;" parent="1" source="4xKS2BO0SPP-DSH_cFb6-25" target="4xKS2BO0SPP-DSH_cFb6-25" edge="1">
          <mxGeometry relative="1" as="geometry">
            <mxPoint x="250.72000000000003" y="1342.5" as="targetPoint" />
          </mxGeometry>
        </mxCell>
        <mxCell id="4xKS2BO0SPP-DSH_cFb6-27" value="" style="ellipse;whiteSpace=wrap;html=1;" parent="1" vertex="1">
          <mxGeometry x="210.72000000000003" y="1270" width="20" height="20" as="geometry" />
        </mxCell>
        <mxCell id="4xKS2BO0SPP-DSH_cFb6-29" value="主机" style="text;html=1;strokeColor=none;fillColor=none;align=center;verticalAlign=middle;whiteSpace=wrap;rounded=0;" parent="1" vertex="1">
          <mxGeometry x="190.72000000000003" y="1297.5" width="60" height="30" as="geometry" />
        </mxCell>
        <mxCell id="4xKS2BO0SPP-DSH_cFb6-31" value="" style="rounded=0;whiteSpace=wrap;html=1;" parent="1" vertex="1">
          <mxGeometry x="550.36" y="1360" width="40" height="60" as="geometry" />
        </mxCell>
        <mxCell id="4xKS2BO0SPP-DSH_cFb6-32" style="edgeStyle=none;rounded=0;orthogonalLoop=1;jettySize=auto;html=1;exitX=-0.018;exitY=0.44;exitDx=0;exitDy=0;startArrow=none;startFill=0;endArrow=none;endFill=0;entryX=0.973;entryY=0.44;entryDx=0;entryDy=0;entryPerimeter=0;exitPerimeter=0;" parent="1" source="4xKS2BO0SPP-DSH_cFb6-31" target="4xKS2BO0SPP-DSH_cFb6-31" edge="1">
          <mxGeometry relative="1" as="geometry">
            <mxPoint x="590.36" y="1380" as="targetPoint" />
          </mxGeometry>
        </mxCell>
        <mxCell id="4xKS2BO0SPP-DSH_cFb6-33" value="主机" style="text;html=1;strokeColor=none;fillColor=none;align=center;verticalAlign=middle;whiteSpace=wrap;rounded=0;" parent="1" vertex="1">
          <mxGeometry x="540" y="1387.5" width="60" height="30" as="geometry" />
        </mxCell>
        <mxCell id="4xKS2BO0SPP-DSH_cFb6-34" value="" style="ellipse;whiteSpace=wrap;html=1;" parent="1" vertex="1">
          <mxGeometry x="560.36" y="1365" width="20" height="20" as="geometry" />
        </mxCell>
        <mxCell id="4xKS2BO0SPP-DSH_cFb6-37" value="&lt;font style=&quot;font-size: 15px;&quot;&gt;&lt;b style=&quot;background-color: rgb(255, 255, 255);&quot;&gt;边缘系统edge&lt;/b&gt;&lt;/font&gt;" style="text;html=1;align=center;verticalAlign=middle;resizable=0;points=[];autosize=1;strokeColor=#9673a6;fillColor=#e1d5e7;" parent="1" vertex="1">
          <mxGeometry x="610.36" y="1350" width="120" height="30" as="geometry" />
        </mxCell>
        <mxCell id="4xKS2BO0SPP-DSH_cFb6-39" value="网络交换节点" style="text;html=1;align=center;verticalAlign=middle;resizable=0;points=[];autosize=1;strokeColor=#9673a6;fillColor=#e1d5e7;fontSize=15;" parent="1" vertex="1">
          <mxGeometry x="280" y="1169" width="110" height="30" as="geometry" />
        </mxCell>
        <mxCell id="4xKS2BO0SPP-DSH_cFb6-41" value="数据链路" style="text;html=1;align=center;verticalAlign=middle;resizable=0;points=[];autosize=1;strokeColor=#9673a6;fillColor=#e1d5e7;fontSize=15;" parent="1" vertex="1">
          <mxGeometry x="340" y="1340" width="80" height="30" as="geometry" />
        </mxCell>
        <mxCell id="4xKS2BO0SPP-DSH_cFb6-44" value="" style="endArrow=classic;html=1;rounded=0;fontSize=15;exitX=0.625;exitY=0;exitDx=0;exitDy=0;exitPerimeter=0;" parent="1" source="4xKS2BO0SPP-DSH_cFb6-41" edge="1">
          <mxGeometry width="50" height="50" relative="1" as="geometry">
            <mxPoint x="400" y="1310" as="sourcePoint" />
            <mxPoint x="420" y="1310" as="targetPoint" />
          </mxGeometry>
        </mxCell>
        <mxCell id="4xKS2BO0SPP-DSH_cFb6-50" value="" style="shape=sumEllipse;perimeter=ellipsePerimeter;whiteSpace=wrap;html=1;backgroundOutline=1;labelBackgroundColor=#;fontSize=15;" parent="1" vertex="1">
          <mxGeometry x="470" y="1300" width="10" height="10" as="geometry" />
        </mxCell>
        <mxCell id="4xKS2BO0SPP-DSH_cFb6-58" style="edgeStyle=none;rounded=0;orthogonalLoop=1;jettySize=auto;html=1;exitX=1;exitY=0.5;exitDx=0;exitDy=0;entryX=0;entryY=0.25;entryDx=0;entryDy=0;fontSize=15;startArrow=none;startFill=0;endArrow=none;endFill=0;" parent="1" source="4xKS2BO0SPP-DSH_cFb6-51" target="4xKS2BO0SPP-DSH_cFb6-31" edge="1">
          <mxGeometry relative="1" as="geometry" />
        </mxCell>
        <mxCell id="4xKS2BO0SPP-DSH_cFb6-51" value="" style="shape=sumEllipse;perimeter=ellipsePerimeter;whiteSpace=wrap;html=1;backgroundOutline=1;labelBackgroundColor=#;fontSize=15;" parent="1" vertex="1">
          <mxGeometry x="440" y="1350" width="10" height="10" as="geometry" />
        </mxCell>
        <mxCell id="4xKS2BO0SPP-DSH_cFb6-53" value="" style="shape=sumEllipse;perimeter=ellipsePerimeter;whiteSpace=wrap;html=1;backgroundOutline=1;labelBackgroundColor=#;fontSize=15;direction=south;" parent="1" vertex="1">
          <mxGeometry x="403" y="1270" width="10" height="10" as="geometry" />
        </mxCell>
        <mxCell id="4xKS2BO0SPP-DSH_cFb6-54" value="" style="shape=sumEllipse;perimeter=ellipsePerimeter;whiteSpace=wrap;html=1;backgroundOutline=1;labelBackgroundColor=#;fontSize=15;" parent="1" vertex="1">
          <mxGeometry x="370" y="1307.5" width="10" height="10" as="geometry" />
        </mxCell>
        <mxCell id="4xKS2BO0SPP-DSH_cFb6-55" value="" style="shape=sumEllipse;perimeter=ellipsePerimeter;whiteSpace=wrap;html=1;backgroundOutline=1;labelBackgroundColor=#;fontSize=15;" parent="1" vertex="1">
          <mxGeometry x="350" y="1250" width="10" height="10" as="geometry" />
        </mxCell>
        <mxCell id="4xKS2BO0SPP-DSH_cFb6-56" value="" style="endArrow=none;html=1;rounded=0;fontSize=15;startArrow=classic;startFill=1;endFill=0;" parent="1" edge="1">
          <mxGeometry width="50" height="50" relative="1" as="geometry">
            <mxPoint x="460" y="1240" as="sourcePoint" />
            <mxPoint x="510" y="1190" as="targetPoint" />
          </mxGeometry>
        </mxCell>
        <mxCell id="4xKS2BO0SPP-DSH_cFb6-57" value="网络核心" style="text;html=1;align=center;verticalAlign=middle;resizable=0;points=[];autosize=1;strokeColor=#82b366;fillColor=#d5e8d4;fontSize=15;" parent="1" vertex="1">
          <mxGeometry x="470" y="1165" width="80" height="30" as="geometry" />
        </mxCell>
        <mxCell id="4xKS2BO0SPP-DSH_cFb6-59" value="" style="endArrow=classic;html=1;rounded=0;fontSize=15;" parent="1" source="4xKS2BO0SPP-DSH_cFb6-60" edge="1">
          <mxGeometry width="50" height="50" relative="1" as="geometry">
            <mxPoint x="480" y="1410" as="sourcePoint" />
            <mxPoint x="510" y="1370" as="targetPoint" />
          </mxGeometry>
        </mxCell>
        <mxCell id="4xKS2BO0SPP-DSH_cFb6-60" value="access" style="text;html=1;align=center;verticalAlign=middle;resizable=0;points=[];autosize=1;strokeColor=#82b366;fillColor=#d5e8d4;fontSize=15;" parent="1" vertex="1">
          <mxGeometry x="435" y="1399" width="70" height="30" as="geometry" />
        </mxCell>
        <mxCell id="4xKS2BO0SPP-DSH_cFb6-61" value="互联网三个子系统：&lt;br&gt;网络边缘 接入网 网络核心" style="text;html=1;align=center;verticalAlign=middle;resizable=0;points=[];autosize=1;strokeColor=#b85450;fillColor=#f8cecc;fontSize=15;" parent="1" vertex="1">
          <mxGeometry x="150" y="1400" width="200" height="50" as="geometry" />
        </mxCell>
        <mxCell id="IB9hqiOk1aJsNqtFWWth-1" value="&lt;span style=&quot;font-size: 16px;&quot;&gt;淘宝在双十一推出让利优惠活动，对于订单在双十一当天提交、并且（订单金额大于&lt;span lang=&quot;EN-US&quot;&gt;200&lt;/span&gt;元或抢到红包）的用户，给予优惠，对其他情况不予以优惠。&lt;/span&gt;" style="text;whiteSpace=wrap;html=1;" vertex="1" parent="1">
          <mxGeometry x="50" y="1720" width="660" height="50" as="geometry" />
        </mxCell>
        <mxCell id="IB9hqiOk1aJsNqtFWWth-94" value="" style="group" vertex="1" connectable="0" parent="1">
          <mxGeometry x="260.36" y="1840" width="463.64" height="240" as="geometry" />
        </mxCell>
        <mxCell id="IB9hqiOk1aJsNqtFWWth-90" value="" style="verticalLabelPosition=bottom;verticalAlign=top;html=1;shape=mxgraph.basic.rect;fillColor2=none;strokeWidth=1;size=20;indent=5;fontSize=16;" vertex="1" parent="IB9hqiOk1aJsNqtFWWth-94">
          <mxGeometry x="0.72" width="459.28" height="240" as="geometry" />
        </mxCell>
        <mxCell id="IB9hqiOk1aJsNqtFWWth-91" value="" style="line;strokeWidth=1;html=1;perimeter=backbonePerimeter;points=[];outlineConnect=0;fontSize=16;" vertex="1" parent="IB9hqiOk1aJsNqtFWWth-94">
          <mxGeometry y="85" width="460" height="10" as="geometry" />
        </mxCell>
        <mxCell id="IB9hqiOk1aJsNqtFWWth-92" value="" style="line;strokeWidth=1;html=1;perimeter=backbonePerimeter;points=[];outlineConnect=0;fontSize=16;" vertex="1" parent="IB9hqiOk1aJsNqtFWWth-94">
          <mxGeometry y="150" width="459.28" height="10" as="geometry" />
        </mxCell>
        <mxCell id="IB9hqiOk1aJsNqtFWWth-93" value="" style="line;strokeWidth=1;direction=south;html=1;perimeter=backbonePerimeter;points=[];outlineConnect=0;fontSize=16;" vertex="1" parent="IB9hqiOk1aJsNqtFWWth-94">
          <mxGeometry x="60.72" width="10" height="240" as="geometry" />
        </mxCell>
        <mxCell id="IB9hqiOk1aJsNqtFWWth-95" value="&lt;font style=&quot;font-size: 13px;&quot;&gt;原因&lt;/font&gt;" style="text;html=1;strokeColor=none;fillColor=none;align=center;verticalAlign=middle;whiteSpace=wrap;rounded=0;strokeWidth=1;fontSize=16;" vertex="1" parent="IB9hqiOk1aJsNqtFWWth-94">
          <mxGeometry x="1.44" y="20" width="59.28" height="40" as="geometry" />
        </mxCell>
        <mxCell id="IB9hqiOk1aJsNqtFWWth-96" value="&lt;font style=&quot;font-size: 13px;&quot;&gt;中间状态&lt;/font&gt;" style="text;html=1;strokeColor=none;fillColor=none;align=center;verticalAlign=middle;whiteSpace=wrap;rounded=0;strokeWidth=1;fontSize=16;" vertex="1" parent="IB9hqiOk1aJsNqtFWWth-94">
          <mxGeometry x="1.44" y="105" width="60" height="30" as="geometry" />
        </mxCell>
        <mxCell id="IB9hqiOk1aJsNqtFWWth-97" value="&lt;font style=&quot;font-size: 13px;&quot;&gt;结果&lt;/font&gt;" style="text;html=1;strokeColor=none;fillColor=none;align=center;verticalAlign=middle;whiteSpace=wrap;rounded=0;strokeWidth=1;fontSize=16;" vertex="1" parent="IB9hqiOk1aJsNqtFWWth-94">
          <mxGeometry x="0.72" y="180" width="60" height="30" as="geometry" />
        </mxCell>
        <mxCell id="IB9hqiOk1aJsNqtFWWth-99" value="&lt;font style=&quot;font-size: 11px;&quot;&gt;c1 : 订单在双十一当天提交&lt;/font&gt;" style="text;html=1;strokeColor=none;fillColor=none;align=left;verticalAlign=middle;whiteSpace=wrap;rounded=0;strokeWidth=1;fontSize=13;" vertex="1" parent="IB9hqiOk1aJsNqtFWWth-94">
          <mxGeometry x="150" width="310" height="30" as="geometry" />
        </mxCell>
        <mxCell id="IB9hqiOk1aJsNqtFWWth-100" value="&lt;font style=&quot;font-size: 11px;&quot;&gt;c2 : 订单金额大于200元&lt;/font&gt;" style="text;html=1;strokeColor=none;fillColor=none;align=left;verticalAlign=middle;whiteSpace=wrap;rounded=0;strokeWidth=1;fontSize=13;" vertex="1" parent="IB9hqiOk1aJsNqtFWWth-94">
          <mxGeometry x="150" y="30" width="310" height="30" as="geometry" />
        </mxCell>
        <mxCell id="IB9hqiOk1aJsNqtFWWth-101" value="&lt;font style=&quot;font-size: 11px;&quot;&gt;c3 : 抢到红包&lt;/font&gt;" style="text;html=1;strokeColor=none;fillColor=none;align=left;verticalAlign=middle;whiteSpace=wrap;rounded=0;strokeWidth=1;fontSize=13;" vertex="1" parent="IB9hqiOk1aJsNqtFWWth-94">
          <mxGeometry x="150" y="60" width="310" height="30" as="geometry" />
        </mxCell>
        <mxCell id="IB9hqiOk1aJsNqtFWWth-103" value="&lt;font style=&quot;font-size: 11px;&quot;&gt;11 : 已提交订单&lt;/font&gt;" style="text;html=1;strokeColor=none;fillColor=none;align=left;verticalAlign=middle;whiteSpace=wrap;rounded=0;strokeWidth=1;fontSize=13;" vertex="1" parent="IB9hqiOk1aJsNqtFWWth-94">
          <mxGeometry x="150" y="90" width="310" height="30" as="geometry" />
        </mxCell>
        <mxCell id="IB9hqiOk1aJsNqtFWWth-104" value="&lt;font style=&quot;font-size: 11px;&quot;&gt;a1 : 给予优惠&lt;/font&gt;" style="text;html=1;strokeColor=none;fillColor=none;align=left;verticalAlign=middle;whiteSpace=wrap;rounded=0;strokeWidth=1;fontSize=13;" vertex="1" parent="IB9hqiOk1aJsNqtFWWth-94">
          <mxGeometry x="149.27999999999997" y="160" width="310" height="30" as="geometry" />
        </mxCell>
        <mxCell id="IB9hqiOk1aJsNqtFWWth-105" value="&lt;font style=&quot;font-size: 11px;&quot;&gt;a2 : 不予以优惠&lt;/font&gt;" style="text;html=1;strokeColor=none;fillColor=none;align=left;verticalAlign=middle;whiteSpace=wrap;rounded=0;strokeWidth=1;fontSize=13;" vertex="1" parent="IB9hqiOk1aJsNqtFWWth-94">
          <mxGeometry x="149.27999999999997" y="190" width="310" height="30" as="geometry" />
        </mxCell>
      </root>
    </mxGraphModel>
  </diagram>
</mxfile>
